<svg xmlns="http://www.w3.org/2000/svg" viewBox="0 0 144.25 167.56"><defs><style>.cls-1{fill:#89add9;}.cls-2{fill:#fffeff;}.cls-3,.cls-4{fill:#3f4761;}.cls-4{font-size:15px;font-family:Montserrat-SemiBold, Montserrat;font-weight:600;letter-spacing:0em;}.cls-5{letter-spacing:0.01em;}.cls-6{letter-spacing:-0.03em;}.cls-7{letter-spacing:0.01em;}.cls-8{letter-spacing:0em;}.cls-9{letter-spacing:0.01em;}.cls-10{letter-spacing:-0.02em;}</style></defs><g id="Слой_2" data-name="Слой 2"><g id="Слой_1-2" data-name="Слой 1"><rect class="cls-1" width="109" height="144.25"/><polygon class="cls-2" points="72.86 144.25 72.86 25.27 109 0 107.53 144.25 72.86 144.25"/><polygon class="cls-2" points="53.87 144.25 53.87 75.33 74.8 60.69 73.95 144.25 53.87 144.25"/><polyline class="cls-3" points="74.8 144.25 74.8 60.69 95.22 75.16 95.22 144.25"/><rect class="cls-3" x="60.2" y="89.32" width="6.73" height="6.73"/><rect class="cls-3" x="60.2" y="100.18" width="6.73" height="6.73"/><rect class="cls-3" x="60.2" y="111.04" width="6.73" height="6.73"/><text class="cls-4" transform="translate(0 163.68)">Т<tspan class="cls-5" x="9.25" y="0">ОО МЕ</tspan><tspan class="cls-6" x="63.76" y="0">Т</tspan><tspan class="cls-7" x="72.64" y="0">А</tspan><tspan class="cls-8" x="84.42" y="0">Л</tspan><tspan class="cls-9" x="96.34" y="0">ЛИ</tspan><tspan class="cls-10" x="120.81" y="0">К</tspan><tspan class="cls-5" x="131.37" y="0">С</tspan></text><polyline class="cls-3" points="107.53 144.25 109 0 109 144.25 109 0 144.25 24.97 144.25 144.25"/></g></g></svg>