<svg width="21" height="18" viewBox="0 0 21 18" fill="none" xmlns="http://www.w3.org/2000/svg">
<path fill-rule="evenodd" clip-rule="evenodd" d="M13.9532 0.309051C13.1832 0.249993 12.2335 0.249996 11.0252 0.25H9.33901C8.1307 0.249996 7.18094 0.249993 6.41092 0.309051C5.62498 0.36933 4.97024 0.494083 4.36169 0.773058C3.35626 1.23397 2.50509 1.97509 1.91024 2.90756C1.75494 3.15101 1.62631 3.40771 1.51657 3.68458C1.14323 4.62653 0.970627 5.86979 0.719473 7.67889L0.698229 7.83188C0.484323 9.37196 0.317104 10.5759 0.266315 11.5457C0.214748 12.5303 0.27713 13.3508 0.573331 14.1041C1.05745 15.3353 1.95134 16.362 3.10425 17.0109C3.80964 17.4079 4.61378 17.5825 5.59613 17.6669C6.56366 17.75 7.77916 17.75 9.33402 17.75H11.0301C12.585 17.75 13.8005 17.75 14.768 17.6669C15.7504 17.5825 16.5545 17.4079 17.2599 17.0109C18.4128 16.362 19.3067 15.3353 19.7908 14.1041C20.087 13.3508 20.1494 12.5303 20.0978 11.5457C20.0471 10.5759 19.8798 9.3719 19.6659 7.83176L19.6415 7.6562C19.3755 5.73923 19.1973 4.45549 18.7632 3.48414C18.6729 3.282 18.5708 3.09084 18.4539 2.90756C17.8591 1.97509 17.0079 1.23397 16.0025 0.773058C15.3939 0.494083 14.7392 0.36933 13.9532 0.309051ZM4.98678 2.13661C5.37039 1.96075 5.829 1.85809 6.52563 1.80466C7.23161 1.75051 8.12399 1.75 9.36998 1.75H10.9942C12.2402 1.75 13.1325 1.75051 13.8385 1.80466C14.5352 1.85809 14.9938 1.96075 15.3774 2.13661C16.0996 2.46767 16.7141 2.99432 17.1517 3.65629L16.6015 4.20647C14.9198 5.88813 13.7108 7.09489 12.668 7.89053C11.6425 8.67297 10.8664 8.9868 10.0607 8.9868C9.25512 8.9868 8.47899 8.67297 7.45349 7.89053C6.41068 7.0949 5.20166 5.88813 3.52 4.20647L3.11909 3.80556C3.13723 3.77452 3.1558 3.74412 3.17483 3.71429C3.61451 3.02507 4.24363 2.47729 4.98678 2.13661ZM17.7313 5.19795C17.8757 5.86551 18.001 6.74811 18.1752 8.00263C18.3951 9.58593 18.5529 10.7262 18.5999 11.6241C18.6465 12.5146 18.5782 13.089 18.3949 13.5552C18.037 14.4652 17.3763 15.2241 16.5242 15.7037C16.0876 15.9494 15.5281 16.0961 14.6397 16.1724C13.7438 16.2494 12.5927 16.25 10.9942 16.25H9.36998C7.77149 16.25 6.62032 16.2494 5.7245 16.1724C4.83606 16.0961 4.27656 15.9494 3.83997 15.7037C2.98782 15.2241 2.32712 14.4652 1.96929 13.5552C1.78596 13.089 1.71763 12.5146 1.76426 11.6241C1.81129 10.7262 1.96901 9.58593 2.18891 8.00263C2.34594 6.872 2.46292 6.04274 2.59113 5.39892C4.17998 6.98769 5.43254 8.23534 6.54362 9.08307C7.70255 9.9673 8.79529 10.4868 10.0607 10.4868C11.3262 10.4868 12.4189 9.9673 13.5779 9.08307C14.7101 8.21918 15.9893 6.93999 17.6216 5.30771L17.7313 5.19795Z" fill="white"/>
</svg>
